Patient4_TMGait_0pt3_03_right_23_EMG.mot
version=1
nRows=13
nColumns=33
inDegrees=no
endheader
time	1LAddLong	2LGlutMax	3LGlutMed	4LIliopsoas	5LSemiMemb	6LBicFemLong	7LRecFem	8LVastMed	9LVastLat	10LGasMed	11LTibAnt	12lTibPost	13LPeroneusLong	14LSol	15LExtDigLong	16LFlexDigLong	17RAddLong	18RGlutMax	19RGlutMed	20RIliopsoas	21RSemiMemb	22RBicFemLong	23RRecFem	24RVastMed	25RVastLat	26RGasMed	27RTibAnt	28RTibPost	29RPeroneusLong	30RSol	31RExtDigLong	32RFlexDigLong
44.908	0.011597	0.12009	-0.1413	0.002899	-0.000153	-0.063171	0.084991	-0.028076	-0.233	0.31738	-0.038605	0.29724	-0.5336	-0.18845	-0.076599	-0.086975	0.17212	-0.021515	-0.18021	-0.10803	0.036774	0.016479	0.031128	-0.063629	0.041351	-0.018768	0.42328	0.003204	-0.28656	0.026245	-0.003967	-0.002899
44.909	0.009613	0.053864	-0.048065	-0.001526	0.028534	-0.1593	0.10193	-0.032806	-0.11231	0.5455	-0.040131	-0.21606	-0.54352	-0.18341	-0.13886	-0.057373	0.13336	0.0177	0.060425	-0.071716	0.033569	0.009003	0.010071	-0.069275	0.045471	-0.00885	0.51819	0	-0.43076	0.036163	0.002441	0.001068
44.91	0.000763	0.021667	-0.18341	0.008545	0.049896	-0.099945	0.059204	-0.034027	-0.011597	0.61035	-0.02243	-0.004883	-0.32638	-0.14252	-0.12543	0.017242	0.036926	-0.078278	0.10071	-0.030975	0.02594	0.001068	0.017853	-0.063019	0.028992	-0.018158	-0.18143	-0.002899	-0.51392	0.002136	-0.003662	-0.004883
44.911	-0.016937	-0.048981	-0.12116	-0.001678	0.036926	0.073395	0.062256	0.007172	0.060577	0.014038	-0.013885	0.12253	0.15823	-0.1831	-0.042877	0.028687	-0.03006	-0.071259	-0.19638	0.033722	0.023193	0.01358	0.013275	-0.093842	0.022278	-0.011444	0.14389	-0.001221	-0.62683	-0.020142	0.000458	-0.010223
44.912	-0.032654	-0.021973	0.054779	-0.006104	0.014191	0.16357	0.10315	0.010376	0.092316	-0.34943	-0.006866	0.20721	0.26001	-0.19089	-0.054169	-0.088348	-0.09613	-0.055695	-0.093384	-0.053406	0.013428	-0.013428	0.028839	-0.053253	0.014954	-0.002441	0.28793	0.003204	0.14206	-0.11688	-0.001373	-0.004578
44.913	-0.028229	-0.04715	0.010376	0.001526	-0.006256	0.17181	0.058136	0.023041	-0.017853	-0.40832	-0.010376	0.31204	0.092468	-0.17654	-0.027771	-0.016327	-0.12512	-0.020142	0.11078	-0.21515	0.018005	-0.011749	-0.030823	-0.00946	0.007477	-0.005035	-0.20569	-0.002594	0.40543	-0.24735	-0.001678	-0.008392
44.914	0.003204	-0.007782	-0.018311	0.001526	-0.015259	0.094757	-0.10574	0.033569	-0.11215	-0.51056	-0.01297	-0.3038	0.032349	0.095215	-0.03006	0.053711	-0.12665	0.002289	0.52719	-0.27161	0.025482	-0.003967	-0.055084	0.009003	0.025787	-0.007782	-0.70129	-0.002289	0.27542	-0.22919	-0.003662	-0.012207
44.915	-0.001068	0.011139	-0.005493	0.009766	0.000153	0.075531	-0.17777	0.027924	0.02243	-0.25848	-0.048981	-0.022278	-0.001526	0.38254	-0.002594	0.014801	-0.13351	0.034943	0.32303	-0.31952	0.046539	0.002136	-0.084076	-0.014954	0.020599	-0.009155	-0.5127	0.007477	0.38284	-0.15976	-0.005493	-0.015259
44.916	-0.004883	0.035248	-0.038757	0.018616	0.02533	0.1442	-0.11917	0.028687	0.15579	-0.032043	0.034943	0.049896	-0.13519	0.21271	-0.016632	-0.039063	-0.12405	0.023804	0.95856	-0.087585	0.052795	-0.009613	-0.096283	-0.032349	0.011597	-0.00824	-0.29053	-0.000153	0.25421	-0.021515	-0.002594	-0.022583
44.917	-0.01297	0.006561	-0.058746	-0.011139	0.021973	0.10925	-0.066376	-0.001984	0.12589	-0.046844	0.014496	-0.015717	-0.059509	-0.029907	-0.025024	-0.038757	-0.088501	-0.069733	0.44357	0.177	0.067291	-0.017242	-0.070038	-0.10849	0.008087	-0.023804	0.029297	-0.002899	-0.040131	0.051117	-0.00061	-0.024414
44.918	-0.008545	-0.015411	-0.059052	0.005646	0.020142	0.071106	-0.006561	-0.009308	-0.04364	-0.053864	-0.025024	-0.060577	0.014191	0.077972	-0.033112	-0.014954	-0.074463	-0.11627	-0.13428	0.30182	0.065308	-0.02243	-0.063019	-0.09079	-0.017395	-0.017242	-0.016479	-0.004578	-0.11246	-0.058441	-0.002594	-0.015259
44.919	0.000305	0.030365	-0.060272	-0.003967	0.005493	0.073547	-0.006561	0.002289	-0.059357	-0.1001	-0.02594	-0.067902	0.027771	0.36163	-0.022583	0.017853	-0.061493	-0.12787	-0.28625	0.21744	0.050507	-0.014191	-0.13382	-0.098572	0.011749	-0.007629	0.087738	-0.002594	-0.19287	-0.11459	-0.000153	-0.016022
44.92	-0.007019	0.047455	-0.09552	-0.004425	0.009155	0.18616	-0.066528	0.002594	-0.039673	-0.062561	0.002594	-0.080109	0.1445	0.19623	-0.019226	0.033112	-0.034485	-0.1091	-0.17059	0.10956	0.05722	-0.019684	-0.039215	-0.065613	0.010376	-0.005188	-0.16983	-0.000458	-0.24521	-0.16403	-0.003815	-0.011749
